<?xml version="1.0" encoding="iso-8859-1"?><!DOCTYPE svg PUBLIC "-//W3C//DTD SVG 1.1//EN" "http://www.w3.org/Graphics/SVG/1.1/DTD/svg11.dtd"><svg height="32px" width="32px" version="1.1" id="Capa_1" xmlns="http://www.w3.org/2000/svg" xmlns:xlink="http://www.w3.org/1999/xlink" viewBox="0 0 443.489 443.489" xml:space="preserve"><g><g><path style="fill:#B3B3B3;" d="M46.83,35.454l27.57,59.62l-29.17,13.41v-0.01C30.27,86.734,30.41,57.234,46.83,35.454z"/><polygon style="fill:#808080;" points="85.12,116.174 97.18,141.744 84.23,147.844 72.03,121.964 84.97,115.864"/><polygon style="fill:#808080;" points="110.48,103.834 122.68,129.714 109.74,135.814 109.59,135.504 97.53,109.944"/><polygon style="fill:#999999;" points="109.59,135.504 109.74,135.814 97.18,141.744 85.12,116.174 84.97,115.864 97.53,109.944"/><path style="fill:#CCCCCC;" d="M97.18,141.744l12.56-5.93l12.94-6.1l-12.2-25.88l-12.95,6.11l-12.56,5.92l-12.94,6.1l12.2,25.88L97.18,141.744z M155.39,76.794c0,4.96-0.41,9.84-1.68,14.43c-0.92,3.35-5.14,13.99-5.14,13.99l-0.02,0.05l-23.2,56.88c-5.56,13.63-8.65,28.14-9.12,42.85l-1.91-0.07h-44.9c-2.78-18.6-9.76-36.41-20.52-52.03l-24.09-35.03l15.52-7.13l4.9-2.25l29.17-13.41l49.03-22.54l-26.67-58.15C129.48,16.394,155.39,43.564,155.39,76.794z"/><path style="fill:#999999;" d="M116.15,375.974v30.45c0,12.53-10.15,22.69-22.68,22.69c-6.27,0-11.93-2.54-16.04-6.65c-4.1-4.1-6.64-9.77-6.64-16.04v-30.45h1.22h41.69H116.15z M103.03,405.734c0-5.19-4.2-9.4-9.4-9.4c-5.19,0-9.4,4.21-9.4,9.4s4.21,9.4,9.4,9.4C98.83,415.134,103.03,410.924,103.03,405.734z"/><path style="fill:#999999;" d="M114.32,204.924l1.91,0.07c-0.06,1.35-0.08,2.7-0.08,4.06v11.2h-2.45H72.01l-1.26,0.04c-0.12-5.16-0.57-10.29-1.33-15.37H114.32z"/><path style="fill:#EF7954;" d="M116.15,220.254v155.72h-2.45H72.01h-1.22v-152.67c0-1-0.01-2-0.04-3.01l1.26-0.04h41.69H116.15z"/></g><g><path style="fill:#CCCCCC;" d="M302.184,44.604c1.05,16.29-6.12,30.95-17.76,40.25c-16.08,12.85-25.14,32.57-25.14,53.15v204.34c0,11.07,2.75,21.93,7.8,31.78c3.33,6.49,5.2,13.84,5.2,21.63c0,26.74-22.1,48.31-49.03,47.46l13.98-26.66c5.39-10.27,1.43-22.96-8.85-28.35c-3.11-1.63-6.45-2.41-9.74-2.41c-7.55,0-14.85,4.09-18.61,11.25l-13.82,26.36c-5.05-7.01-8.24-15.43-8.82-24.52c-1.05-16.28,6.12-30.95,17.76-40.25c16.08-12.85,25.13-32.56,25.13-53.15v-204.34c0-11.06-2.74-21.93-7.79-31.78c-3.33-6.48-5.21-13.83-5.21-21.62c0-26.75,22.11-48.32,49.04-47.47l-13.98,26.66c-5.39,10.27-1.43,22.97,8.84,28.35c3.12,1.63,6.45,2.41,9.74,2.41c7.56,0,14.86-4.09,18.62-11.25l13.82-26.36C298.404,27.094,301.604,35.514,302.184,44.604z"/><path style="fill:#999999;" d="M247.784,132.744v178c0,4.42-3.58,8-8,8c-4.41,0-8-3.58-8-8v-178c0-2.21,0.9-4.21,2.35-5.66c1.45-1.45,3.45-2.34,5.65-2.34C244.204,124.744,247.784,128.324,247.784,132.744z"/></g></g></svg>
